<?xml version="1.0" encoding="UTF-8"?>
<svg version="1.1" xmlns="http://www.w3.org/2000/svg" width="1689" height="306">
<path d="M0 0 C9.57 0 19.14 0 29 0 C36.0915558 8.41253188 36.0915558 8.41253188 37.6171875 12.53515625 C40.16589343 18.71604882 43.75658826 23.9860121 47.5 29.5 C52.43738784 36.99027332 57.22936876 44.547547 61.86938477 52.22485352 C67.19351548 61.01540409 72.75503382 69.65425654 78.28759766 78.31445312 C80.91245258 82.43099206 83.52000075 86.55837666 86.125 90.6875 C86.61218506 91.45956787 87.09937012 92.23163574 87.60131836 93.02709961 C88.57839666 94.57577765 89.55536657 96.12452409 90.53222656 97.67333984 C93.51870759 102.4073991 96.50848118 107.13938044 99.49829102 111.87133789 C102.01344245 115.85253358 104.52643265 119.83506273 107.03515625 123.8203125 C107.54240234 124.62533203 108.04964844 125.43035156 108.57226562 126.25976562 C109.5079967 127.74491678 110.44300279 129.23052524 111.37695312 130.71679688 C116.51058776 138.86057432 121.76889019 146.91555756 127 155 C127.33 103.85 127.66 52.7 128 0 C137.9 0 147.8 0 158 0 C158 70.62 158 141.24 158 214 C148.76 214 139.52 214 130 214 C123.45141746 207.17275438 123.45141746 207.17275438 122.109375 203.703125 C119.7820919 198.2789424 116.60920383 193.54559751 113.375 188.625 C112.16844532 186.73004397 110.96539435 184.83285309 109.765625 182.93359375 C105.90250878 176.84058976 102.01604686 170.7626946 98.125 164.6875 C97.45774902 163.6454541 96.79049805 162.6034082 96.10302734 161.52978516 C94.7461808 159.4109143 93.38924699 157.29209934 92.03222656 155.17333984 C88.68695051 149.94966156 85.34356187 144.72477559 82 139.5 C80.66667591 137.41666075 79.33334257 135.33332742 78 133.25 C70 120.75 70 120.75 67.9987793 117.62304688 C66.66957043 115.54618846 65.34030638 113.46936537 64.01098633 111.39257812 C60.61408814 106.08547128 57.21824233 100.77769576 53.82421875 95.46875 C53.13134766 94.38529297 52.43847656 93.30183594 51.72460938 92.18554688 C50.42996965 90.16104314 49.13566076 88.13632779 47.84179688 86.11132812 C42.2609344 77.38564667 36.627178 68.69654782 31 60 C30.67 110.82 30.34 161.64 30 214 C20.1 214 10.2 214 0 214 C0 143.38 0 72.76 0 0 Z " fill="#FFFFFF" transform="translate(915,31)"/>
<path d="M0 0 C10.23 0 20.46 0 31 0 C31.33 35.31 31.66 70.62 32 107 C39.62425485 97.91316446 39.62425485 97.91316446 46.9375 88.625 C47.77152178 87.53078201 48.60618053 86.43704929 49.44140625 85.34375 C49.8605127 84.79460937 50.27961914 84.24546875 50.71142578 83.6796875 C52.91163362 80.81166364 55.14141012 77.96706293 57.375 75.125 C57.83140869 74.54419678 58.28781738 73.96339355 58.75805664 73.36499023 C61.61257256 69.74089642 64.49180561 66.13755004 67.38305664 62.54272461 C72.1530798 56.61122306 76.83599848 50.62582547 81.4375 44.5625 C86.27547411 38.1894204 91.24772378 31.94582751 96.3203125 25.75830078 C100.55793447 20.57884149 104.6494701 15.3039187 108.68359375 9.96484375 C109.44800781 8.98644531 110.21242188 8.00804687 111 7 C111.60680855 6.1106073 111.60680855 6.1106073 112.22587585 5.20324707 C115.79436957 0.3697639 115.79436957 0.3697639 119.00236511 -0.61412048 C121.33129198 -0.80816356 123.56387743 -0.78899431 125.8984375 -0.68359375 C126.73339752 -0.67368912 127.56835754 -0.66378448 128.42861938 -0.65357971 C131.07924765 -0.61458574 133.72563757 -0.52680706 136.375 -0.4375 C138.17832533 -0.40236608 139.981716 -0.3704307 141.78515625 -0.34179688 C146.19172169 -0.26487474 150.59514397 -0.14420848 155 0 C152.15694815 4.33162378 149.1398566 8.33757758 145.75 12.25 C142.50459841 16.04014056 139.28793135 19.83930473 136.1875 23.75 C130.76004312 30.59574293 125.16959359 37.30811021 119.60986328 44.04638672 C116.86767211 47.37411098 114.14124048 50.71466053 111.4140625 54.0546875 C109.47659626 56.41852171 107.53325225 58.77710406 105.5859375 61.1328125 C99.62434472 68.34752418 93.67481861 75.55557682 88 83 C92.42810382 91.2510022 97.06843976 99.36478843 101.8125 107.4375 C102.17827148 108.06116455 102.54404297 108.6848291 102.92089844 109.32739258 C108.70484853 119.18526618 114.59861145 128.9722598 120.55444336 138.72702026 C126.8073597 148.97250819 132.90394487 159.3037057 138.95458984 169.66967773 C143.13366688 176.8276328 147.34892913 183.96191245 151.625 191.0625 C152.57033826 192.63409909 153.51565215 194.20571283 154.4609375 195.77734375 C154.89116211 196.4926123 155.32138672 197.20788086 155.76464844 197.94482422 C157.60122393 201.00021799 159.43239915 204.05825115 161.25 207.125 C161.79140625 208.03507813 162.3328125 208.94515625 162.890625 209.8828125 C164 212 164 212 164 214 C151.46 214 138.92 214 126 214 C122.8134375 208.43125 122.8134375 208.43125 119.5625 202.75 C113.70443271 192.55977499 107.69279755 182.47745438 101.56246948 172.44940186 C95.61051977 162.70904423 89.797325 152.89429577 84.0508728 143.03143311 C79.16568158 134.6473754 74.21192834 126.3137219 69.04541016 118.09912109 C66 113.20939227 66 113.20939227 66 111 C58.91609559 117.85539136 52.26771192 125.23083763 46.36303711 133.12744141 C44.59897313 135.27187541 43.06519069 136.87025893 41.01000977 138.65966797 C33.61791164 145.60855083 31.28271242 151.98487511 30.70536804 162.10072327 C30.52041362 168.48118108 30.58117968 174.85366673 30.71246338 181.234375 C30.77552151 184.93542602 30.76997137 188.63639246 30.76953125 192.33789062 C30.7735685 199.56255422 30.88924239 206.77306582 31 214 C20.77 214 10.54 214 0 214 C0 143.38 0 72.76 0 0 Z " fill="#13ED8C" transform="translate(46,31)"/>
<path d="M0 0 C10.56 0 21.12 0 32 0 C35.31992264 11.76850985 38.45366246 23.55890645 41.3871994 35.42903328 C42.06584277 38.17438765 42.74787656 40.91888148 43.4307251 43.66319275 C45.3674042 51.44921516 47.2977341 59.23680865 49.22705078 67.0246582 C50.41643699 71.82474544 51.60920092 76.6239833 52.80399323 81.42272758 C53.47644304 84.12824303 54.14483363 86.83474136 54.81317139 89.54127502 C55.22125423 91.18129915 55.62954717 92.82127103 56.03808594 94.46118164 C56.22300095 95.21476959 56.40791595 95.96835754 56.59843445 96.74478149 C57.23434277 100.15504149 57.23434277 100.15504149 59 103 C71.20852844 68.7370502 83.16724203 34.39422952 95 0 C102.59 0 110.18 0 118 0 C122.89915744 13.52932791 127.74814861 27.07187563 132.48046875 40.66015625 C132.71295444 41.32753185 132.94544014 41.99490746 133.18497086 42.68250656 C135.34018779 48.87062943 137.49177106 55.06001428 139.64233398 61.24975586 C140.83765853 64.68972404 142.03490082 68.12902042 143.23317909 71.56796074 C143.88920086 73.45251471 144.54306171 75.33782049 145.19682312 77.22315979 C148.32789499 86.20909398 151.65613138 95.08301701 155 104 C167.87 52.52 167.87 52.52 181 0 C191.89 0 202.78 0 214 0 C210.15600009 13.59301058 206.17242501 27.12136254 201.96484375 40.60546875 C201.39899838 42.42533223 200.83337636 44.24526516 200.26795959 46.06526184 C198.79060008 50.8187392 197.31045016 55.57134273 195.82958984 60.32373047 C194.36726068 65.01807123 192.90728511 69.7131436 191.44726562 74.40820312 C189.71049661 79.99298571 187.97358901 85.57772462 186.23544312 91.16207886 C181.4734808 106.46350527 176.73280125 121.77147912 172.00120544 137.08232117 C171.73879751 137.93104231 171.47638958 138.77976345 171.20602989 139.65420341 C170.71691724 141.236218 170.22807606 142.81831654 169.73955727 144.4005146 C168.85045466 147.27591296 167.9517942 150.14461739 167 153 C159.08 153 151.16 153 143 153 C141.741875 149.40738281 140.48375 145.81476563 139.1875 142.11328125 C137.45891211 137.17948457 135.72964428 132.24592642 134 127.3125 C133.66422691 126.35477629 133.66422691 126.35477629 133.32167053 125.37770462 C124.61969906 100.55947258 115.83946509 75.76962069 107 51 C103.98264532 58.33915303 101.26622168 65.75735128 98.65625 73.25 C98.24993851 74.41059937 97.84362701 75.57119873 97.42500305 76.76696777 C96.3382279 79.87219496 95.25333049 82.97807043 94.16913223 86.084198 C93.04788942 89.29444424 91.92367983 92.50365073 90.79956055 95.71289062 C89.01957684 100.79524764 87.24049942 105.87792009 85.46240234 110.9609375 C79.24364484 128.73824111 79.24364484 128.73824111 76.57226562 136.33642578 C76.06772273 137.77320572 75.56429564 139.210378 75.06201172 140.64794922 C74.38377077 142.58912158 73.70178031 144.52898271 73.01953125 146.46875 C72.64932861 147.52513672 72.27912598 148.58152344 71.89770508 149.66992188 C71 152 71 152 70 153 C68.29227642 153.08713831 66.58101351 153.10700007 64.87109375 153.09765625 C63.31938477 153.09282227 63.31938477 153.09282227 61.73632812 153.08789062 C60.64771484 153.07951172 59.55910156 153.07113281 58.4375 153.0625 C56.7987793 153.05573242 56.7987793 153.05573242 55.12695312 153.04882812 C52.41791505 153.03699826 49.70898401 153.02051543 47 153 C44.13848883 146.78223816 42.16371487 140.38212834 40.17578125 133.83984375 C39.61333961 132.00627571 39.61333961 132.00627571 39.03953552 130.13566589 C38.00840539 126.77413975 36.98198647 123.41119204 35.95646667 120.04795074 C34.87161996 116.4926184 33.78290875 112.93847027 32.69433594 109.38427734 C32.24117413 107.90460398 31.78801869 106.42492866 31.33486938 104.94525146 C30.9920587 103.82589329 30.9920587 103.82589329 30.64232254 102.68392181 C29.93279765 100.36641312 29.22384522 98.04872988 28.51498413 95.73101807 C25.09085029 84.53902343 21.64215576 73.35475391 18.18262291 62.17365456 C16.51865014 56.79456213 14.85696978 51.41476093 13.19507694 46.0350256 C11.83774149 41.64194265 10.47894277 37.2493222 9.11709595 32.8576355 C7.82938572 28.70472603 6.54564651 24.55060944 5.26484871 20.39556313 C4.79000501 18.85772046 4.31367373 17.32033625 3.835783 15.78343773 C3.1818896 13.67987946 2.53318082 11.57479058 1.88574219 9.46923828 C1.51970886 8.28629181 1.15367554 7.10334534 0.77655029 5.884552 C0 3 0 3 0 0 Z " fill="#FFFFFF" transform="translate(1264,92)"/>
<path d="M0 0 C1.21236328 0.54333984 1.21236328 0.54333984 2.44921875 1.09765625 C15.97690195 7.87298145 24.62612879 20.06099318 29.875 33.9375 C35.60044316 51.52843054 36 68.40714414 36 87 C4.32 87 -27.36 87 -60 87 C-56.95120496 103.40900174 -56.95120496 103.40900174 -46.96484375 115.75390625 C-36.37222781 122.47168853 -25.23957808 123.14635818 -13 122 C-4.95016453 120.14936772 1.50314882 116.39870964 7.9765625 111.35546875 C10 110 10 110 13 110 C15.0847168 111.74414062 15.0847168 111.74414062 17.44921875 114.15625 C18.29677734 115.01347656 19.14433594 115.87070313 20.01757812 116.75390625 C20.89865234 117.66011719 21.77972656 118.56632812 22.6875 119.5 C24.02651367 120.85931641 24.02651367 120.85931641 25.39257812 122.24609375 C27.60189251 124.49085168 29.80392533 126.74229998 32 129 C28.60027954 133.41645929 25.19745812 136.61078303 20.4375 139.5625 C19.51940552 140.13991943 19.51940552 140.13991943 18.58276367 140.72900391 C5.54483446 148.72614015 -7.93148459 152.57425711 -23.1875 152.4375 C-24.37279297 152.42992676 -25.55808594 152.42235352 -26.77929688 152.41455078 C-45.66572052 152.06126842 -60.61382937 146.72940577 -74 133 C-88.2208652 117.69801639 -89.52672813 98.27206858 -89.44604492 78.4453125 C-89.43755394 75.27016889 -89.46634636 72.09684113 -89.49804688 68.921875 C-89.57149635 47.92567129 -86.58575304 27.8948092 -71.30859375 12.1796875 C-53.35530803 -4.77113049 -22.89496668 -10.72652049 0 0 Z M-51 34 C-57.71552336 42.65515681 -59.00307455 51.03382 -60 62 C-38.22 62 -16.44 62 6 62 C6 51.04465284 2.86233117 40.70382829 -4 32 C-11.07595061 25.19293552 -18.27027871 23.59246086 -27.88256836 23.63427734 C-37.14866126 23.8659031 -44.7344031 27.06137223 -51 34 Z " fill="#FFFFFF" transform="translate(1207,94)"/>
<path d="M0 0 C1.17208008 -0.0103125 2.34416016 -0.020625 3.55175781 -0.03125 C18.84808179 0.12399885 34.71380626 4.57895934 46.01171875 15.44140625 C54.32264611 24.98496553 59.88487543 37.42150244 59.87025452 50.21479797 C59.87231651 51.61344337 59.87231651 51.61344337 59.87442017 53.04034424 C59.86902725 54.55625153 59.86902725 54.55625153 59.86352539 56.1027832 C59.86367142 57.1764061 59.86381744 58.25002899 59.8639679 59.35618591 C59.86327196 62.90023834 59.85549444 66.44423802 59.84765625 69.98828125 C59.84579094 72.44736197 59.84436757 74.90644307 59.84336853 77.36552429 C59.83955227 83.83457466 59.82972956 90.30360255 59.81866455 96.77264404 C59.8084313 103.37511898 59.8038668 109.97759755 59.79882812 116.58007812 C59.78810652 129.53256355 59.77051689 142.48502638 59.75 155.4375 C50.18 155.4375 40.61 155.4375 30.75 155.4375 C30.42 152.1375 30.09 148.8375 29.75 145.4375 C28.63625 146.345 27.5225 147.2525 26.375 148.1875 C12.03346535 158.96275605 -7.85251871 158.07116255 -24.89648438 156.13720703 C-37.70943791 153.91784063 -48.62786869 148.01478387 -56.25 137.4375 C-64.02243131 125.11761634 -64.5312797 107.46490388 -61.5625 93.484375 C-58.60946832 83.88702205 -52.45667176 76.16613588 -44.25 70.4375 C-33.92382594 65.08256967 -23.55606261 64.14202605 -12.12109375 64.2421875 C-10.89084976 64.2450174 -9.66060577 64.24784729 -8.39308167 64.25076294 C-4.4911192 64.26189453 -0.58939226 64.28698642 3.3125 64.3125 C5.96939768 64.32367466 8.62629315 64.3316631 11.28320312 64.33984375 C17.77221481 64.36181088 24.26109057 64.39521823 30.75 64.4375 C30.48168717 61.72495726 30.19983689 59.01496235 29.91015625 56.3046875 C29.83623657 55.54309326 29.76231689 54.78149902 29.68615723 53.99682617 C28.99217149 47.66399319 27.00390596 42.90224799 23.75 37.4375 C23.42 36.4475 23.09 35.4575 22.75 34.4375 C20.9213506 33.31959318 20.9213506 33.31959318 18.75 32.4375 C18.10804688 32.08429688 17.46609375 31.73109375 16.8046875 31.3671875 C5.33095889 25.81538333 -8.46183652 27.41798675 -20.25 31.2109375 C-23.70282757 32.62264044 -26.65145196 34.30604099 -29.6015625 36.58203125 C-31.25 37.4375 -31.25 37.4375 -33.08691406 37.15454102 C-35.53195633 36.34403434 -37.36248866 35.24493036 -39.5078125 33.8203125 C-40.29800781 33.29566406 -41.08820313 32.77101562 -41.90234375 32.23046875 C-42.71832031 31.68003906 -43.53429687 31.12960938 -44.375 30.5625 C-45.19871094 30.01980469 -46.02242187 29.47710937 -46.87109375 28.91796875 C-47.65871094 28.39074219 -48.44632813 27.86351563 -49.2578125 27.3203125 C-49.97598145 26.83965332 -50.69415039 26.35899414 -51.43408203 25.86376953 C-53.25 24.4375 -53.25 24.4375 -55.25 21.4375 C-41.31935055 4.72072066 -20.84730383 0.15276747 0 0 Z M-29.625 95.875 C-33.65046932 102.22285546 -34.01646102 108.06031265 -33.25 115.4375 C-31.55757762 121.30328212 -28.3536859 125.06714139 -23.25 128.4375 C-16.1148978 131.76027022 -9.13034706 131.89319147 -1.375 131.8125 C-0.26769531 131.82410156 0.83960938 131.83570313 1.98046875 131.84765625 C11.87163979 131.81278726 20.99829079 130.83619937 28.5078125 123.9375 C31.32814342 120.53181738 30.86538977 116.78487652 30.84765625 112.58203125 C30.8462413 111.92039474 30.84482635 111.25875824 30.84336853 110.57707214 C30.83777996 108.46800172 30.82522965 106.35903823 30.8125 104.25 C30.80748352 102.81836091 30.80292087 101.38672015 30.79882812 99.95507812 C30.7878143 96.44918412 30.77055755 92.9433525 30.75 89.4375 C23.77584356 89.33571951 16.80188011 89.26587504 9.82714844 89.21777344 C7.45663291 89.19771174 5.08616655 89.17045574 2.71582031 89.13574219 C-0.69999351 89.08698582 -4.11515055 89.06447601 -7.53125 89.046875 C-8.58364868 89.02622986 -9.63604736 89.00558472 -10.72033691 88.98431396 C-18.43164758 88.9819852 -24.13330644 90.23878819 -29.625 95.875 Z " fill="#13ED8C" transform="translate(288.25,89.5625)"/>
<path d="M0 0 C13.7674563 11.61934255 20.14477344 26.27600043 22 44 C22.33530905 50.55528351 22.32983468 57.11744298 22.31567383 63.6796875 C22.31252116 66.7295331 22.33601206 69.77839917 22.36132812 72.828125 C22.43176967 94.69233721 19.7083272 113.57537045 4.3125 130.1875 C-10.69921883 144.42275061 -28.65945208 145.87161 -48.33984375 145.3828125 C-64.37075621 144.66992896 -79.01103768 139.00877132 -90 127 C-100.45309078 113.32246791 -104.30102146 98.7067683 -104.3359375 81.7734375 C-104.3425943 80.62694733 -104.3492511 79.48045715 -104.35610962 78.29922485 C-104.36618464 75.88390697 -104.37092825 73.46856153 -104.37060547 71.05322266 C-104.37496285 67.40609486 -104.41129676 63.76019437 -104.44921875 60.11328125 C-104.55353063 38.57913384 -102.26160162 19.62138559 -86.62890625 3.40625 C-64.71805483 -16.64885323 -23.53450917 -17.26304109 0 0 Z M-67 29 C-74.71283101 40.11900511 -74.32939339 54.04860074 -74.25 67.0625 C-74.25773438 68.33416016 -74.26546875 69.60582031 -74.2734375 70.91601562 C-74.24401345 85.25288164 -73.00414542 98.38236853 -62.9375 109.2734375 C-54.94202206 116.39844002 -45.24262812 116.62465336 -35.06738281 116.18359375 C-27.88958864 115.54617037 -21.94510597 112.06010844 -17 107 C-8.20654506 96.22173666 -8.49098887 82.49920636 -8.55395508 69.29174805 C-8.56247438 66.57068346 -8.53359958 63.85171844 -8.50195312 61.13085938 C-8.45270759 48.92666098 -8.96315731 36.58390242 -17.15625 26.71875 C-25.83247273 18.63074576 -34.42828913 17.52180931 -45.7890625 17.7265625 C-54.5432519 18.11623774 -61.27578526 22.50089156 -67 29 Z " fill="#13ED8C" transform="translate(693,101)"/>
<path d="M0 0 C2.10011092 -0.00959722 4.19919486 -0.04061788 6.29907227 -0.07226562 C26.90323227 -0.23519528 46.59711296 5.61559363 63.69946289 17.24023438 C64.68946289 18.72523437 64.68946289 18.72523437 65.69946289 20.24023438 C59.81370603 27.67141342 53.78972622 34.97684655 47.69946289 42.24023438 C44.69078266 41.10388353 41.7958787 39.82227057 38.91430664 38.40039062 C22.37415866 30.24159059 3.46949051 24.80028628 -14.86303711 30.92773438 C-20.19824534 33.37303815 -23.39066756 36.04827592 -25.67553711 41.55273438 C-26.4381246 46.05200055 -26.39371353 48.79465025 -25.30053711 53.24023438 C-20.62224461 59.01012846 -11.880654 59.99970384 -4.86450195 60.79174805 C1.16150502 61.39825655 7.19684679 61.9026246 13.2331543 62.39428711 C29.5808517 63.749294 46.10481403 65.58579176 57.94165039 78.09570312 C67.50644007 89.76474653 66.70427489 104.98195207 65.69946289 119.24023438 C63.95535409 129.18958231 58.79179818 138.54847777 50.77758789 144.83789062 C30.34439834 158.62645274 1.43318442 159.52344318 -22.33154297 155.10644531 C-25.73658862 154.33083659 -28.98500306 153.34885531 -32.30053711 152.24023438 C-32.9545752 152.02592773 -33.60861328 151.81162109 -34.2824707 151.59082031 C-45.98545674 147.66218537 -56.09057048 141.42687138 -65.30053711 133.24023438 C-61.94621637 127.93769704 -58.06550292 123.17992914 -54.05053711 118.36523438 C-53.40084961 117.58148438 -52.75116211 116.79773438 -52.08178711 115.99023438 C-50.49058255 114.07142887 -48.89678787 112.15484211 -47.30053711 110.24023438 C-43.60375886 111.58451738 -40.60384508 113.27310226 -37.36303711 115.49023438 C-20.56229813 126.35063109 -0.87141344 130.56140147 18.91040039 126.51757812 C26.24243218 124.44548219 30.28972635 121.89638637 34.51196289 115.49023438 C36.4152029 110.28136698 36.64442249 105.52803129 34.51196289 100.36523438 C30.06856847 95.15573747 23.74375527 93.15894683 17.11352539 92.49414062 C16.02894043 92.38086426 14.94435547 92.26758789 13.8269043 92.15087891 C12.67109863 92.03599121 11.51529297 91.92110352 10.32446289 91.80273438 C7.8868305 91.54225162 5.44933225 91.28051076 3.01196289 91.01757812 C-0.52690818 90.64087461 -4.0658374 90.26489033 -7.60522461 89.89306641 C-38.40611529 86.58542712 -38.40611529 86.58542712 -48.30053711 76.24023438 C-54.82791772 67.55166287 -56.68224972 59.08240583 -56.61303711 48.42773438 C-56.60884766 47.54698242 -56.6046582 46.66623047 -56.6003418 45.75878906 C-56.48694422 39.21792029 -55.77189664 33.34968971 -53.30053711 27.24023438 C-53.01049805 26.51835938 -52.72045898 25.79648438 -52.42163086 25.05273438 C-47.98054088 15.2414561 -40.57591977 8.6961067 -30.59741211 4.79101562 C-20.23696101 1.16072374 -10.91078415 0.03000559 0 0 Z " fill="#FFFFFF" transform="translate(1561.300537109375,89.759765625)"/>
<path d="M0 0 C2.10011092 -0.00959722 4.19919486 -0.04061788 6.29907227 -0.07226562 C26.90323227 -0.23519528 46.59711296 5.61559363 63.69946289 17.24023438 C64.68946289 18.72523437 64.68946289 18.72523437 65.69946289 20.24023438 C59.81370603 27.67141342 53.78972622 34.97684655 47.69946289 42.24023438 C44.69078266 41.10388353 41.7958787 39.82227057 38.91430664 38.40039062 C22.37415866 30.24159059 3.46949051 24.80028628 -14.86303711 30.92773438 C-20.19824534 33.37303815 -23.39066756 36.04827592 -25.67553711 41.55273438 C-26.4381246 46.05200055 -26.39371353 48.79465025 -25.30053711 53.24023438 C-20.62224461 59.01012846 -11.880654 59.99970384 -4.86450195 60.79174805 C1.16150502 61.39825655 7.19684679 61.9026246 13.2331543 62.39428711 C29.5808517 63.749294 46.10481403 65.58579176 57.94165039 78.09570312 C67.50644007 89.76474653 66.70427489 104.98195207 65.69946289 119.24023438 C63.95535409 129.18958231 58.79179818 138.54847777 50.77758789 144.83789062 C30.34439834 158.62645274 1.43318442 159.52344318 -22.33154297 155.10644531 C-25.73658862 154.33083659 -28.98500306 153.34885531 -32.30053711 152.24023438 C-32.9545752 152.02592773 -33.60861328 151.81162109 -34.2824707 151.59082031 C-45.98545674 147.66218537 -56.09057048 141.42687138 -65.30053711 133.24023438 C-61.94621637 127.93769704 -58.06550292 123.17992914 -54.05053711 118.36523438 C-53.40084961 117.58148438 -52.75116211 116.79773438 -52.08178711 115.99023438 C-50.49058255 114.07142887 -48.89678787 112.15484211 -47.30053711 110.24023438 C-43.60375886 111.58451738 -40.60384508 113.27310226 -37.36303711 115.49023438 C-20.56229813 126.35063109 -0.87141344 130.56140147 18.91040039 126.51757812 C26.24243218 124.44548219 30.28972635 121.89638637 34.51196289 115.49023438 C36.4152029 110.28136698 36.64442249 105.52803129 34.51196289 100.36523438 C30.06856847 95.15573747 23.74375527 93.15894683 17.11352539 92.49414062 C16.02894043 92.38086426 14.94435547 92.26758789 13.8269043 92.15087891 C12.67109863 92.03599121 11.51529297 91.92110352 10.32446289 91.80273438 C7.8868305 91.54225162 5.44933225 91.28051076 3.01196289 91.01757812 C-0.52690818 90.64087461 -4.0658374 90.26489033 -7.60522461 89.89306641 C-38.40611529 86.58542712 -38.40611529 86.58542712 -48.30053711 76.24023438 C-54.82791772 67.55166287 -56.68224972 59.08240583 -56.61303711 48.42773438 C-56.60884766 47.54698242 -56.6046582 46.66623047 -56.6003418 45.75878906 C-56.48694422 39.21792029 -55.77189664 33.34968971 -53.30053711 27.24023438 C-53.01049805 26.51835938 -52.72045898 25.79648438 -52.42163086 25.05273438 C-47.98054088 15.2414561 -40.57591977 8.6961067 -30.59741211 4.79101562 C-20.23696101 1.16072374 -10.91078415 0.03000559 0 0 Z " fill="#13ED8C" transform="translate(808.300537109375,89.759765625)"/>
<path d="M0 0 C0.96832764 0.00757324 1.93665527 0.01514648 2.93432617 0.02294922 C13.43008048 0.26427142 24.49568566 2.66799057 32.1875 10.4375 C32.1875 14.8177935 31.78156218 15.47580793 29.265625 18.80859375 C28.65203125 19.63037109 28.0384375 20.45214844 27.40625 21.29882812 C26.7565625 22.14896484 26.106875 22.99910156 25.4375 23.875 C24.48617187 25.1444043 24.48617187 25.1444043 23.515625 26.43945312 C20.46997425 30.49080313 17.38548758 34.50462134 14.1875 38.4375 C11.69379873 37.28656095 9.57874515 36.01401836 7.3125 34.4375 C-1.19008189 28.99584759 -12.19840562 29.11468112 -21.8984375 31.0546875 C-27.99977463 33.17607549 -32.5157261 36.86708892 -35.8125 42.4375 C-38.60518438 48.98523794 -39.25565314 54.94412451 -39.24487305 62.00610352 C-39.2550647 63.02178909 -39.26525635 64.03747467 -39.27575684 65.0839386 C-39.30573714 68.41148502 -39.31512999 71.73874286 -39.32421875 75.06640625 C-39.3410765 77.38525844 -39.35922821 79.70410155 -39.37861633 82.02293396 C-39.42600315 88.10390384 -39.45588582 94.18483691 -39.48205566 100.26593018 C-39.51191827 106.48009509 -39.55842903 112.69413332 -39.60351562 118.90820312 C-39.68942014 131.08458351 -39.75528264 143.26095098 -39.8125 155.4375 C-50.0425 155.4375 -60.2725 155.4375 -70.8125 155.4375 C-70.8125 104.9475 -70.8125 54.4575 -70.8125 2.4375 C-60.5825 2.4375 -50.3525 2.4375 -39.8125 2.4375 C-39.3175 10.8525 -39.3175 10.8525 -38.8125 19.4375 C-37.719375 18.096875 -36.62625 16.75625 -35.5 15.375 C-25.84232052 4.5399709 -14.28832835 -0.15656399 0 0 Z " fill="#13ED8C" transform="translate(538.8125,89.5625)"/>
<path d="M0 0 C10.23 0 20.46 0 31 0 C31 50.49 31 100.98 31 153 C20.77 153 10.54 153 0 153 C0 102.51 0 52.02 0 0 Z " fill="#13ED8C" transform="translate(392,92)"/>
<path d="M0 0 C10.23 0 20.46 0 31 0 C31 10.23 31 20.46 31 31 C20.77 31 10.54 31 0 31 C0 20.77 0 10.54 0 0 Z " fill="#13ED8C" transform="translate(392,31)"/>
</svg>
